<?xml version="1.0" encoding="utf-8"?>
<svg version="1.1" xmlns:xlink="http://www.w3.org/1999/xlink" width="30px" height="20px" xmlns="http://www.w3.org/2000/svg">
  <g transform="matrix(1 0 0 1 -28 -100 )">
    <path d="M 50 100  C 50 100  52 100.66666666666667  52 100.66666666666667  C 52 100.66666666666667  58 110  58 110  C 58 110  52 119.33333333333333  52 119.33333333333333  C 52 119.33333333333333  50 120  50 120  C 50 120  33 120  33 120  C 30.2 120  28 117.8  28 115  C 28 115  28 105  28 105  C 28 102.2  30.2 100  33 100  C 33 100  50 100  50 100  Z " fill-rule="nonzero" fill="#ffd200" stroke="none" />
  </g>
</svg>