<?xml version="1.0" encoding="utf-8"?>
<svg version="1.1" xmlns:xlink="http://www.w3.org/1999/xlink" width="30px" height="20px" xmlns="http://www.w3.org/2000/svg">
  <g transform="matrix(1 0 0 1 -28 -20 )">
    <path d="M 50 20  C 50 20  52 20.666666666666668  52 20.666666666666668  C 52 20.666666666666668  58 30  58 30  C 58 30  52 39.33333333333333  52 39.33333333333333  C 52 39.33333333333333  50 40  50 40  C 50 40  33 40  33 40  C 30.2 40  28 37.8  28 35  C 28 35  28 25  28 25  C 28 22.2  30.2 20  33 20  C 33 20  50 20  50 20  Z " fill-rule="nonzero" fill="#ff3232" stroke="none" />
  </g>
</svg>