<?xml version="1.0" encoding="utf-8"?>
<svg version="1.1" xmlns:xlink="http://www.w3.org/1999/xlink" width="30px" height="20px" xmlns="http://www.w3.org/2000/svg">
  <g transform="matrix(1 0 0 1 -28 -60 )">
    <path d="M 50 60  C 50 60  52 60.666666666666664  52 60.666666666666664  C 52 60.666666666666664  58 70  58 70  C 58 70  52 79.33333333333333  52 79.33333333333333  C 52 79.33333333333333  50 80  50 80  C 50 80  33 80  33 80  C 30.2 80  28 77.8  28 75  C 28 75  28 65  28 65  C 28 62.2  30.2 60  33 60  C 33 60  50 60  50 60  Z " fill-rule="nonzero" fill="#ff9800" stroke="none" />
  </g>
</svg>